<svg xmlns="http://www.w3.org/2000/svg" viewBox="0 0 800 600" font-family="Georgia, 'Times New Roman', serif">
  <rect width="800" height="600" fill="#faf7f2"/>
  <rect x="24" y="24" width="752" height="552" fill="#fffefb" stroke="#7a6a48" stroke-width="2"/>
  <rect x="40" y="40" width="720" height="520" fill="none" stroke="#c2a96a" stroke-width="4"/>
  <rect x="50" y="50" width="700" height="500" fill="none" stroke="#c2a96a" stroke-width="1"/>
  <text x="400" y="120" text-anchor="middle" font-size="34" fill="#4a3f29" font-weight="bold" letter-spacing="3">CERTIFICADO</text>
  <text x="400" y="158" text-anchor="middle" font-size="22" fill="#7a6a48" letter-spacing="6">DE AUTENTICIDAD</text>
  <line x1="280" y1="180" x2="520" y2="180" stroke="#c2a96a" stroke-width="1.5"/>
  <text x="400" y="230" text-anchor="middle" font-size="15" fill="#5a4f38">Se certifica que la obra / pieza descrita</text>
  <text x="400" y="258" text-anchor="middle" font-size="15" fill="#5a4f38">es original y de procedencia verificada.</text>
  <text x="400" y="316" text-anchor="middle" font-size="15" fill="#3d3324">Título: ____________________________________</text>
  <text x="400" y="350" text-anchor="middle" font-size="15" fill="#3d3324">Autor / Origen: _____________________________</text>
  <text x="400" y="384" text-anchor="middle" font-size="15" fill="#3d3324">No. de Certificado: _________________________</text>
  <g transform="translate(400,460)">
    <circle r="48" fill="none" stroke="#9c7b2b" stroke-width="3"/>
    <circle r="38" fill="none" stroke="#9c7b2b" stroke-width="1"/>
    <path d="M0,-30 L8,-10 L30,-10 L13,4 L19,26 L0,13 L-19,26 L-13,4 L-30,-10 L-8,-10 Z" fill="#c2a96a"/>
  </g>
  <line x1="120" y1="510" x2="300" y2="510" stroke="#3d3324" stroke-width="1.2"/>
  <text x="210" y="530" text-anchor="middle" font-size="12" fill="#5a4f38">Perito / Galería</text>
  <line x1="500" y1="510" x2="680" y2="510" stroke="#3d3324" stroke-width="1.2"/>
  <text x="590" y="530" text-anchor="middle" font-size="12" fill="#5a4f38">Fecha</text>
</svg>
