<svg xmlns="http://www.w3.org/2000/svg" viewBox="0 0 800 600" font-family="Georgia, 'Times New Roman', serif">
  <rect width="800" height="600" fill="#f6f1e7"/>
  <rect x="20" y="20" width="760" height="560" fill="#fffdf8" stroke="#b8975a" stroke-width="3"/>
  <rect x="32" y="32" width="736" height="536" fill="none" stroke="#d8c393" stroke-width="1"/>
  <text x="400" y="80" text-anchor="middle" font-size="30" fill="#5b4a2f" font-weight="bold" letter-spacing="2">ESCRITURA PÚBLICA</text>
  <text x="400" y="110" text-anchor="middle" font-size="15" fill="#8a7551">Título de Propiedad de Bien Inmueble</text>
  <line x1="250" y1="128" x2="550" y2="128" stroke="#b8975a" stroke-width="1.5"/>
  <text x="80" y="175" font-size="15" fill="#3d3324">Folio Real No. ____________________________</text>
  <text x="80" y="208" font-size="15" fill="#3d3324">Otorgada ante Notario Público No. ________</text>
  <text x="80" y="241" font-size="15" fill="#3d3324">a favor del propietario del inmueble descrito</text>
  <text x="80" y="274" font-size="15" fill="#3d3324">en el presente instrumento legal.</text>
  <g stroke="#cbb98f" stroke-width="1">
    <line x1="80" y1="315" x2="720" y2="315"/>
    <line x1="80" y1="345" x2="720" y2="345"/>
    <line x1="80" y1="375" x2="720" y2="375"/>
    <line x1="80" y1="405" x2="560" y2="405"/>
  </g>
  <circle cx="640" cy="430" r="62" fill="none" stroke="#9c2b2b" stroke-width="3"/>
  <circle cx="640" cy="430" r="50" fill="none" stroke="#9c2b2b" stroke-width="1.5"/>
  <text x="640" y="420" text-anchor="middle" font-size="11" fill="#9c2b2b" font-weight="bold">REGISTRO</text>
  <text x="640" y="436" text-anchor="middle" font-size="11" fill="#9c2b2b" font-weight="bold">PÚBLICO DE</text>
  <text x="640" y="452" text-anchor="middle" font-size="11" fill="#9c2b2b" font-weight="bold">PROPIEDAD</text>
  <line x1="110" y1="500" x2="320" y2="500" stroke="#3d3324" stroke-width="1.2"/>
  <text x="215" y="520" text-anchor="middle" font-size="13" fill="#5b4a2f">Firma del Notario</text>
  <text x="400" y="565" text-anchor="middle" font-size="12" fill="#8a7551" font-style="italic">Documento de validación de propiedad — SubastaNet</text>
</svg>
